<?xml version="1.0" encoding="UTF-8" standalone="no"?>
<svg
   version="1.1"
   id="svg5"
   viewBox="43.35 139.87 123.61426 97.324899"
   sodipodi:docname="logo_light.svg"
   inkscape:version="1.2.2 (b0a8486, 2022-12-01)"
   width="123.61427"
   height="97.324898"
   xmlns:inkscape="http://www.inkscape.org/namespaces/inkscape"
   xmlns:sodipodi="http://sodipodi.sourceforge.net/DTD/sodipodi-0.dtd"
   xmlns="http://www.w3.org/2000/svg"
   xmlns:svg="http://www.w3.org/2000/svg">
  <sodipodi:namedview
     id="namedview13"
     pagecolor="#505050"
     bordercolor="#eeeeee"
     borderopacity="1"
     inkscape:showpageshadow="0"
     inkscape:pageopacity="0"
     inkscape:pagecheckerboard="0"
     inkscape:deskcolor="#505050"
     showgrid="false"
     inkscape:zoom="4.9042534"
     inkscape:cx="54.850347"
     inkscape:cy="43.125831"
     inkscape:window-width="1656"
     inkscape:window-height="1017"
     inkscape:window-x="0"
     inkscape:window-y="17"
     inkscape:window-maximized="1"
     inkscape:current-layer="layer7" />
  <defs
     id="defs2" />
  <g
     inkscape:groupmode="layer"
     id="g1844"
     inkscape:label="Brackets Light">
    <path
       d="m 71.021774,225.20821 q -6.411208,-10.1825 -9.428247,-19.44314 -3.100846,-9.55395 -3.100846,-18.81459 0,-9.17682 3.100846,-18.81459 1.592326,-4.81888 3.897009,-9.55396 2.304682,-4.77697 5.531238,-9.80537 h 6.704531 q -2.975135,5.0703 -4.986495,9.72157 -1.969456,4.60936 -3.310362,9.30253 -2.765619,9.63777 -2.765619,19.14982 0,19.02411 11.062476,38.25773 z"
       id="path1840"
       style="display:inline;font-size:85.818px;font-family:Hack;-inkscape-font-specification:Hack;fill:#f8f8f2;stroke-width:0.22706;fill-opacity:1"
       transform="matrix(0.94946483,0,0,1.2733586,-12.186743,-49.57591)"
       inkscape:label="L Bracket" />
    <path
       d="m 169.45267,225.20821 q 5.48934,-9.59586 8.33876,-19.23362 1.29901,-4.48366 2.01136,-9.30254 0.71236,-4.81888 0.71236,-9.72157 0,-9.63776 -2.72372,-19.06601 -1.299,-4.48365 -3.39416,-9.30254 -2.05327,-4.81888 -4.9446,-9.80537 h 6.70453 q 6.41121,9.93108 9.42825,19.35933 3.10085,9.63777 3.10085,18.81459 0,9.26064 -3.10085,18.8984 -3.05894,9.47015 -9.42825,19.35933 z"
       id="path1842"
       style="display:inline;font-size:85.818px;font-family:Hack;-inkscape-font-specification:Hack;fill:#f8f8f2;stroke-width:0.22706;fill-opacity:1"
       transform="matrix(0.94946483,0,0,1.2733586,-12.186743,-49.57591)"
       inkscape:label="R Bracket" />
  </g>
  <g
     inkscape:groupmode="layer"
     id="g1850"
     inkscape:label="Brackets Dark"
     style="display:none">
    <path
       d="m 71.021774,225.20821 q -6.411208,-10.1825 -9.428247,-19.44314 -3.100846,-9.55395 -3.100846,-18.81459 0,-9.17682 3.100846,-18.81459 1.592326,-4.81888 3.897009,-9.55396 2.304682,-4.77697 5.531238,-9.80537 h 6.704531 q -2.975135,5.0703 -4.986495,9.72157 -1.969456,4.60936 -3.310362,9.30253 -2.765619,9.63777 -2.765619,19.14982 0,19.02411 11.062476,38.25773 z"
       id="path1846"
       style="font-size:85.818px;font-family:Hack;-inkscape-font-specification:Hack;display:inline;fill:#282a36;fill-opacity:1;stroke-width:0.22706"
       transform="matrix(0.94946483,0,0,1.2733586,-12.186743,-49.57591)"
       inkscape:label="L Bracket" />
    <path
       d="m 169.45267,225.20821 q 5.48934,-9.59586 8.33876,-19.23362 1.29901,-4.48366 2.01136,-9.30254 0.71236,-4.81888 0.71236,-9.72157 0,-9.63776 -2.72372,-19.06601 -1.299,-4.48365 -3.39416,-9.30254 -2.05327,-4.81888 -4.9446,-9.80537 h 6.70453 q 6.41121,9.93108 9.42825,19.35933 3.10085,9.63777 3.10085,18.81459 0,9.26064 -3.10085,18.8984 -3.05894,9.47015 -9.42825,19.35933 z"
       id="path1848"
       style="font-size:85.818px;font-family:Hack;-inkscape-font-specification:Hack;display:inline;fill:#282a36;fill-opacity:1;stroke-width:0.22706"
       transform="matrix(0.94946483,0,0,1.2733586,-12.186743,-49.57591)"
       inkscape:label="R Bracket" />
  </g>
  <g
     inkscape:groupmode="layer"
     id="layer7"
     inkscape:label="Main"
     transform="translate(-11.227391,-1e-5)">
    <path
       id="path1338"
       style="display:inline;opacity:1;fill:#ed5959;fill-opacity:1"
       inkscape:label="Letter"
       d="m 103.01602,144.65711 2.22851,7.92773 h 9.30664 l 2.34375,7.91016 -22.314451,72.90039 h 10.205081 l 5.27343,-18.99414 h 25.53711 l 5.3711,18.99414 h 15.46093 l -2.42187,-7.91016 h -5.25586 L 124.01,144.65711 Z m 19.83593,24.5293 10.40039,37.30468 h -20.80078 z"
       sodipodi:nodetypes="cccccccccccccccccc"
       transform="translate(-4,-0.49378877)" />
    <path
       d="m 83.915143,179.85813 7.089844,-10.86914 -10.664062,-4.62891 1.054687,-3.01758 11.015625,3.60352 0.585938,-12.45117 h 3.164062 l 0.585938,12.45117 11.015625,-3.60352 1.05469,3.01758 -10.664065,4.62891 7.089845,10.86914 -2.7539,1.96289 -7.910164,-10.45899 -7.910156,10.45899 z"
       id="path180"
       style="display:inline;font-size:60px;font-family:Hack;-inkscape-font-specification:Hack;fill:#ed5959;stroke-width:0.264583"
       inkscape:label="Asterisk"
       transform="translate(-4,-0.49378877)" />
  </g>
</svg>
