<?xml version="1.0" encoding="UTF-8"?>
<svg version="1.1" viewBox="43.35 139.87 148.02 118.03" xmlns="http://www.w3.org/2000/svg">
 <g fill="#f8f8f2" stroke-width=".22706">
  <path transform="scale(.94946 1.0532)" d="m169.45 225.21q5.4893-9.5959 8.3388-19.234 1.299-4.4837 2.0114-9.3025 0.71236-4.8189 0.71236-9.7216 0-9.6378-2.7237-19.066-1.299-4.4836-3.3942-9.3025-2.0533-4.8189-4.9446-9.8054h6.7045q6.4112 9.9311 9.4282 19.359 3.1008 9.6378 3.1008 18.815 0 9.2606-3.1008 18.898-3.0589 9.4702-9.4282 19.359z"/>
  <path transform="scale(.94946 1.0532)" d="m71.022 225.21q-6.4112-10.182-9.4282-19.443-3.1008-9.554-3.1008-18.815 0-9.1768 3.1008-18.815 1.5923-4.8189 3.897-9.554 2.3047-4.777 5.5312-9.8054h6.7045q-2.9751 5.0703-4.9865 9.7216-1.9695 4.6094-3.3104 9.3025-2.7656 9.6378-2.7656 19.15 0 19.024 11.062 38.258z"/>
 </g>
 <g display="none" fill="#21222c" stroke-width=".22706">
  <path transform="scale(.94946 1.0532)" d="m169.45 225.21q5.4893-9.5959 8.3388-19.234 1.299-4.4837 2.0114-9.3025 0.71236-4.8189 0.71236-9.7216 0-9.6378-2.7237-19.066-1.299-4.4836-3.3942-9.3025-2.0533-4.8189-4.9446-9.8054h6.7045q6.4112 9.9311 9.4282 19.359 3.1008 9.6378 3.1008 18.815 0 9.2606-3.1008 18.898-3.0589 9.4702-9.4282 19.359z"/>
  <path transform="scale(.94946 1.0532)" d="m71.022 225.21q-6.4112-10.182-9.4282-19.443-3.1008-9.554-3.1008-18.815 0-9.1768 3.1008-18.815 1.5923-4.8189 3.897-9.554 2.3047-4.777 5.5312-9.8054h6.7045q-2.9751 5.0703-4.9865 9.7216-1.9695 4.6094-3.3104 9.3025-2.7656 9.6378-2.7656 19.15 0 19.024 11.062 38.258z"/>
 </g>
 <path transform="translate(-.71907 -3.7794)" d="m84.634 191.64 7.0898-10.869-10.664-4.6289 1.0547-3.0176 11.016 3.6035 0.58594-12.451h3.1641l0.58594 12.451 11.016-3.6035 1.0547 3.0176-10.664 4.6289 7.0898 10.869-2.7539 1.9629-7.9102-10.459-7.9102 10.459z" fill="#ed5959" stroke-width=".26458"/>
 <path transform="translate(-.71907 -3.7794)" d="m117.61 164.27h11.963l22.314 72.9h-10.205l-5.3711-18.994h-25.537l-5.2734 18.994h-10.205zm16.357 45.996-10.4-37.305-10.4 37.305z" fill="#ed5959" stroke-width=".26458"/>
</svg>
